<svg id="_01.Atom_Brand_Logo_Sfinx-Logo" data-name=" 01.Atom Brand Logo Sfinx-Logo" xmlns="http://www.w3.org/2000/svg" viewBox="0 0 122 32"><defs><style>.cls-1{fill:#fff;}</style></defs><title>logo-white</title><g id="_01.Atom_Brand_Logo_Sfinx-wordmark" data-name=" 01.Atom Brand Logo Sfinx-wordmark"><path id="Combined_Shape" data-name="Combined Shape" class="cls-1" d="M44,30.36a6.6,6.6,0,0,1-3-1.76l3.14-3.46a5.08,5.08,0,0,0,1.6,1.35,4.41,4.41,0,0,0,2,.47,5,5,0,0,0,1.62-.26,1,1,0,0,0,.72-.94,1,1,0,0,0-.64-1,7,7,0,0,0-1.61-.55l-2.1-.48a8.14,8.14,0,0,1-2.1-.77,4.22,4.22,0,0,1-1.62-1.46A4.37,4.37,0,0,1,41.41,19a5.23,5.23,0,0,1,.6-2.54,5.3,5.3,0,0,1,1.59-1.74,6.76,6.76,0,0,1,2.26-1,10.28,10.28,0,0,1,2.59-.33,12.2,12.2,0,0,1,3.34.48,6.23,6.23,0,0,1,2.86,1.71l-3.17,3.12a3.64,3.64,0,0,0-3-1.4,2.68,2.68,0,0,0-1.27.31,1.06,1.06,0,0,0-.62,1.06,1,1,0,0,0,.64.91,9,9,0,0,0,1.62.51l2.09.48a8.28,8.28,0,0,1,2.11.8,4.79,4.79,0,0,1,1.61,1.49,4.4,4.4,0,0,1,.64,2.52A4.61,4.61,0,0,1,54.6,28a5.49,5.49,0,0,1-1.81,1.68,7.84,7.84,0,0,1-2.48.89,14.66,14.66,0,0,1-2.72.26A13.36,13.36,0,0,1,44,30.36Zm64.5.1-3.65-5.54L101,30.46h-6l6.61-8.9L96,13.84h6.09l3,4.51,2.86-4.51h5.75l-5.44,7.73,6.43,8.9ZM89.77,30.4V22.25c0-.48,0-1,0-1.49a4.7,4.7,0,0,0-.31-1.42,2.22,2.22,0,0,0-2.32-1.47,3.26,3.26,0,0,0-1.62.36,2.5,2.5,0,0,0-1,1,4,4,0,0,0-.43,1.35,11.82,11.82,0,0,0-.1,1.57V30.4H78.83V13.77h5V16h.07a4.05,4.05,0,0,1,.69-.95,4.93,4.93,0,0,1,1.07-.86A5.9,5.9,0,0,1,87,13.6a6.27,6.27,0,0,1,1.72-.24,7.2,7.2,0,0,1,3.17.6,4.61,4.61,0,0,1,1.87,1.66,6.55,6.55,0,0,1,.91,2.5,18,18,0,0,1,.24,3.11V30.4Zm-30.28,0V17.85H56.08v-4.1h3.41V10.8a13.92,13.92,0,0,1,.24-2.58,5.08,5.08,0,0,1,.93-2.14,5.92,5.92,0,0,1,5-2.08,14.39,14.39,0,0,1,2.85.4V8.75a4.11,4.11,0,0,0-1.34-.32A2.47,2.47,0,0,0,65.38,9a2.65,2.65,0,0,0-.73,2.11v2.64h5.29l-2.22,4.1H64.65V30.38Zm16.62-.09H71V13.66h5.16V30.29ZM71.41,9.56a2.95,2.95,0,0,1,0-4.2,3,3,0,0,1,4.23,0,2.95,2.95,0,0,1,0,4.2A3,3,0,0,1,71.41,9.56Z"/></g><g id="_01.Atom_Brand_Logo_Sfinx-icon" data-name=" 01.Atom Brand Logo Sfinx-icon"><path id="Combined_Shape-2" data-name="Combined Shape-2" class="cls-1" d="M21.47,31.36l-.56-2.82h5.17A4,4,0,0,1,22.32,32l-.74.05ZM10.67,32a4,4,0,0,1-3.75-3.41h5.17l-.57,2.89-.1.57Zm-4-5.07-.47-3H13l-.59,3Zm13.94,0-.59-3h6.81l-.47,3Zm-.94-4.78-.57-2.92h8.47L27.1,22.1ZM5.9,22.1l-.46-2.92h8.48l-.57,2.92Zm12.82-4.71h0l-.16-.5.72-.41a5.42,5.42,0,0,0,1.89-2h10.9L33,16.2l-2.17,1-.4.19Zm-16.15,0-.16-.07L0,16.2l.93-1.73h10.9a5.41,5.41,0,0,0,1.87,2l.73.43-.16.5Zm19.21-4.71a5.46,5.46,0,0,0,.07-.9,5.17,5.17,0,0,0-.41-2h8.11l1.56,2.92Zm-19.89,0L3.45,9.76h8.1a5.17,5.17,0,0,0-.41,2,5.47,5.47,0,0,0,.08.9ZM20.24,8a5.25,5.25,0,0,0-7.41-.07.46.46,0,0,1-.07.07H4.41L6,5H27L28.58,8ZM6.94,3.25l.35-.66A4.87,4.87,0,0,1,11.59,0h9.82a4.87,4.87,0,0,1,4.3,2.6l.35.65Z"/></g></svg>