<?xml version="1.0" encoding="UTF-8"?><svg id="Layer_2" xmlns="http://www.w3.org/2000/svg" viewBox="0 0 128 128"><defs><style>.cls-1{fill:#fff;}</style></defs><path class="cls-1" d="m104.26,36.42h-27.22c-4.82-4.33-10.38-5.97-16.76-4.54-2.25.51-4.38,1.39-6.08,2.89-1.58,1.4-3.23,1.81-5.26,1.78-7.39-.09-14.77-.03-22.16-.04-.81,0-1.66.17-2.69-.38,1.61-3.01,3.18-5.94,4.84-9.05h71.31c1.3,2.5,2.72,5.24,4.14,7.99-.04.45-.07.9-.11,1.34Z"/><path class="cls-1" d="m32.81,20.17c2.89-6.44,7.83-10.06,14.86-10.17,11.32-.17,22.65-.2,33.96.02,6.91.14,11.8,3.77,14.63,10.13-.2.18-.39.36-.59.54-10.88.04-21.75.1-32.63.1-9.95,0-19.91-.07-29.86-.11-.13-.17-.25-.34-.38-.51Z"/><path class="cls-1" d="m56.87,68.23h-2.59c-10.66,0-21.33-.23-31.98.1-5.04.16-8.99-1.99-13.25-4.16.71-2.03,1.68-3.78,2.8-5.6h37c1.78,3.07,4.37,5.62,7.78,7.3.94.46.93,1.29.24,2.36Z"/><path class="cls-1" d="m72.36,68.23c-1-1.43-.4-2.14.5-2.58,3.18-1.59,5.5-4.08,7.45-7.08h36.85c1.28,1.54,1.94,3.46,3.03,5.52-3.7,1.68-6.83,4.21-11.13,4.17-11.34-.09-22.67-.03-34.01-.03-.91,0-1.83,0-2.69,0Z"/><path class="cls-1" d="m47.36,43.43c-.54,2.86-1.31,5.7-.67,8.79H15.55c1.28-3.38,3.23-6.25,4.92-9.32,3.56-.51,7.07-.33,10.57-.29,5.26.06,10.53-.3,15.79.21.18.2.35.41.53.61Z"/><path class="cls-1" d="m82.03,42.84c7.36-.52,14.72-.16,22.08-.19,1.42,0,2.84,0,4.44,0,1.68,3.06,3.32,6.04,5.16,9.38h-31.13c.06-2.87.05-5.8-.91-8.61.12-.2.24-.39.35-.59Z"/><path class="cls-1" d="m101.83,74.39c-.48,3.18-.94,6.15-1.42,9.31h-25.1c-.74-2.91-1.52-5.95-1.89-9.31h28.41Z"/><path class="cls-1" d="m27.44,74.35h28.16c-.22,3.29-1.1,6.31-1.73,9.45h-24.92c-.75-3-1.22-6.03-1.51-9.45Z"/><path class="cls-1" d="m77.03,90.01h22.15c-.13,3.43-.93,6.56-1.4,9.83h-19.46c-.57-3.12-1.15-6.23-1.72-9.34.14-.16.29-.33.43-.49Z"/><path class="cls-1" d="m52.59,90.09c-.53,3.41-.97,6.54-1.98,9.7h-19.27c-.52-3.13-1.05-6.32-1.62-9.7h22.87Z"/><path class="cls-1" d="m80.56,105.63c5.21,0,10.42,0,15.62,0,.15.18.29.36.44.54-1.61,7.06-7.34,11.23-14.89,10.57-.43-3.64-2.03-7.16-1.68-11.03.24.36.39.24.5-.09Z"/><path class="cls-1" d="m46.79,116.84c-7.31.27-13.17-4.13-14.19-10.67.19-.18.39-.36.58-.54,5.21,0,10.42,0,15.62,0,.19.18.38.37.57.55-.67,3.37-1.35,6.75-2.02,10.12-.19.18-.38.36-.56.54Z"/><path class="cls-1" d="m104.26,36.42c.04-.45.07-.9.11-1.34.41.48.97.98-.11,1.34Z"/><path class="cls-1" d="m32.81,20.17c.13.17.25.34.38.51-.38.02-.53-.13-.38-.51Z"/><path class="cls-1" d="m95.67,20.69c.2-.18.39-.36.59-.54.11.52-.2.57-.59.54Z"/><path class="cls-1" d="m47.36,43.43c-.18-.2-.35-.4-.53-.61.41,0,.6.19.53.61Z"/><path class="cls-1" d="m82.03,42.84c-.12.2-.24.39-.35.59-.11-.34-.03-.55.35-.59Z"/><path class="cls-1" d="m77.03,90.01c-.14.16-.29.33-.43.49-.05-.34.04-.55.43-.49Z"/><path class="cls-1" d="m33.18,105.63c-.19.18-.39.36-.58.54-.03-.42.18-.58.58-.54Z"/><path class="cls-1" d="m49.38,106.18c-.19-.18-.38-.37-.57-.55.41-.05.59.15.57.55Z"/><path class="cls-1" d="m80.56,105.63c-.11.33-.26.45-.5.09.17-.03.33-.06.5-.09Z"/><path class="cls-1" d="m96.62,106.18c-.15-.18-.29-.36-.44-.54.4-.03.5.19.44.54Z"/><path class="cls-1" d="m46.79,116.84c.19-.18.38-.36.56-.54-.02.36-.16.58-.56.54Z"/></svg>